<svg width="410" height="250" xmlns="http://www.w3.org/2000/svg"><path fill="none" d="M-1-1h412v252H-1z"/><g><g stroke="null"><path d="M222.059066 72.63595c-1.314005-6.979762-1.972596-13.26562-1.763477-16.842647.223413-3.831132-.743297-4.614625-1.035533-.838875-.122824 1.588161-.565943.87471-1.992713-3.211342-3.40466-9.751306-3.208247-17.688037.670767-27.034566 3.281836-7.908225 5.155961-15.300909 5.19302-20.484014l.030177-4.224507 1.980008 5.670141c2.448009 7.010711 5.154902 18.421034 5.703375 24.041494.581826 5.961711-.185295 18.487818-1.367476 22.327095-1.058828 3.4402-4.600606 7.121475-7.093086 7.373137-1.241475.125424-1.371711.921133-.752297 4.602408.411355 2.448211 1.204946 5.7581 1.762948 7.357663.634238 1.814575.683473 3.180393.132353 3.636481-.655414.540789-1.034475-.071671-1.467535-2.372468h-.000529zm-5.124725 52.124245c-1.606241-7.675295-3.803838-14.176166-5.888669-17.416013-2.233067-3.470335-1.242534-4.976237 1.061475-1.612594.969357 1.415499 1.24624.387674 1.24624-4.623583 0-11.956813-4.245369-19.356013-14.460408-25.200444-8.643209-4.945288-15.015233-10.506293-17.657538-15.410859l-2.153126-3.995649v6.952886c0 8.597243 1.827007 21.585139 3.849368 27.365229 2.145185 6.131114 9.498212 17.448591 13.106697 20.172897 3.2326 2.440066 10.136685 3.159218 13.826699 1.438303 1.838654-.856792 2.422068-.201981 3.375013 3.788781.633708 2.65345 1.152004 6.428385 1.152004 8.388746 0 2.225054.611473 3.563995 1.627418 3.563995 1.207063 0 1.443711-.88204.914298-3.411695h.000529zm4.634488-39.049204c-2.120832-7.416303-4.538135-13.521355-6.476848-16.355611-2.07742-3.036237-1.524712-4.766111.592414-1.85204.890474 1.225734.971474.129496.365296-4.933886-1.447417-12.079794-5.493197-18.661294-13.780111-22.416683-7.011556-3.17795-12.413165-7.455396-14.967057-11.854194l-2.081126-3.583542.841768 7.023742c1.040298 8.685202 3.967956 21.423065 6.16767 26.835842 2.334185 5.74344 9.159917 15.629129 12.166987 17.622882 2.693657 1.785255 7.903618 1.058774 10.433157-1.455407 1.260534-1.252611 1.773536-.713451 2.963129 3.116867.790944 2.547572 1.632712 6.252466 1.869889 8.233187.269472 2.247858.88518 3.471963 1.639065 3.257765.895768-.254106.964592-1.193971.265766-3.638924zm-8.948152 71.820694c-2.073714-7.239569-4.91296-13.370683-7.605029-16.426467-2.885305-3.27324-1.605183-4.693625 1.371182-1.520562 1.251534 1.334869 1.609418.365684 1.609418-4.361333 0-11.277569-5.483668-18.255702-18.677718-23.768656-11.164278-4.664306-19.395074-9.909308-22.808204-14.53452l-2.781011-3.769234v6.557882c0 8.108578 2.360127 20.35859 4.972254 25.809646 2.770952 5.783348 12.268635 16.457416 16.929064 19.026978 4.175486 2.302426 13.093461 2.980041 17.859244 1.357674 2.37548-.80874 3.128835-.191394 4.359722 3.57214.818474 2.502778 1.487653 6.063516 1.487653 7.912298 0 2.09963.789885 3.362014 2.102832 3.362014 1.559124 0 1.864066-.831545 1.180593-3.217043v-.000814zm9.959861-53.551146c3.867897-4.902122 7.60397-8.506025 10.010156-9.656831 2.578245-1.23225 2.618481-3.046011.043412-1.942443-1.08371.464232-.836474-.513098 1.111769-4.397983 4.649312-9.269971 9.86139-12.232909 17.752303-10.095 6.676966 1.809689 12.344341 1.658203 15.704001-.417808l2.738128-1.692409-2.703187 5.389973c-3.342719 6.664573-9.397624 15.540355-12.757284 18.700387-3.564014 3.352241-12.008693 7.325085-15.052292 7.081567-2.72701-.219085-6.804026-4.16994-8.164619-7.912298-.678179-1.865071-1.253652-1.738018-3.329483.732997-1.380182 1.643543-3.133071 4.231023-3.894897 5.75077-.865592 1.725801-1.722183 2.364323-2.281773 1.700554-.663355-.788379-.450531-1.625625.823768-3.241476z" fill="#bf0000"/><path d="M228.909394 83.5551552c1.8622087-5.2987869 4.0288738-9.6581033 5.8052757-11.6800602 1.9034635-2.1656512 1.3489083-3.4040132-.5938336-1.3269762-.8176184.8744864-.9147436.0904299-.4376237-3.5292221 1.1381605-8.6366726 4.8326933-13.3313287 12.583582-15.992545 6.5582995-2.2513944 11.5756627-5.2950085 13.903357-8.4330242l1.897045-2.5568587-.661953 5.0214663c-.818417 6.2092166-3.3415928 15.3107586-5.3163457 19.1763073-2.0942497 4.1008633-8.3508793 11.151319-11.1511696 12.5682928-2.5091436 1.2688218-7.4401458.733231-9.875465-1.073512-1.2133523-.9001924-1.686855-.5161038-2.737558 2.2210088-.6990563 1.8197441-1.4236359 4.4668943-1.6098926 5.8821816-.2119103 1.6078406-.7698797 2.4816103-1.4857275 2.326044-.850336-.184309-.9327055-.8569128-.3191595-2.6039543l-.0005325.0008518zm-9.3330787 60.9880765c4.2992835-5.743306 8.3020098-9.8686445 10.724658-11.0512443 2.5947436-1.2670426 2.8740526-3.5461925.2991122-2.4414434-1.0838796.4649035-.7201703-.7381843 1.63414-5.4127998 5.6171337-11.155017 10.926753-14.3112449 18.0837397-10.7495104 6.0557608 3.0148773 11.4205575 3.4500857 14.8653569 1.206632l2.8070827-1.828582-3.2661113 6.4864113c-4.0388948 8.020453-10.9299141 18.5259043-14.5183512 22.132839-3.8066355 3.8263694-12.2989003 7.895981-15.1370845 7.2527672-2.542854-.5756783-5.8621539-5.9978623-6.647235-10.858905-.3913787-2.4226788-.951196-2.3265308-3.2372202.555232-1.520271 1.916425-3.5177709 4.980347-4.4384661 6.8093665-1.0458941 2.076445-1.938492 2.7858883-2.377405 1.8885176-.5215748-1.0650426-.2091726-2.0964504 1.2077828-3.9892808zM223.89619 69.841944l4.652771.847447c.609641.110994-3.539479 28.154507-9.266085 62.638126-5.72738 34.482809-10.86446 62.346462-11.473328 62.235468l-4.652771-.847447c-.609641-.110994 3.538705-28.154507 9.266085-62.638126 5.726606-34.482809 10.863686-62.346462 11.473328-62.235468z" fill="#bf0000"/><text stroke="#007fff" transform="matrix(1.4966 0 0 1.7848 -102.503827 -100.0740209)" font-weight="bold" font-family="'Trebuchet MS', Gadget, sans-serif" font-size="28" y="163.926062" x="74.598155" stroke-width="2" fill="#007fff">Betlehem</text><text stroke="#007fff" transform="matrix(1.20347 0 0 1.7432 -131.3930867 -90.8298102)" font-weight="bold" font-family="'Trebuchet MS', Gadget, sans-serif" font-size="28" y="163.421313" x="295.507318" stroke-width="2" fill="#007fff">Tabernacle</text><text stroke="#007fff" transform="matrix(.77366 0 0 1.007 -15.7070758 63.9308852)" font-family="'League Gothic', sans-serif" font-size="45" y="168.938222" x="69.510384" fill="#007fff">House of God&apos;s Bread</text></g></g></svg>